<?xml version="1.0" encoding="UTF-8"?>
<svg width="128" height="28" viewBox="0 0 128 28" fill="none" xmlns="http://www.w3.org/2000/svg">
<path d="M0 10.5454H2.62587V12.3668H2.68549C3.34852 10.9882 4.40984 10.2314 6.02209 10.2314C7.47574 10.2314 8.70639 11.0825 9.22632 12.3955H9.27521C10.0217 10.8748 11.2082 10.2314 12.7203 10.2314C14.9443 10.2314 16.3801 11.8142 16.3801 14.365V21.5434H13.654V14.8746C13.654 13.354 12.8885 12.5698 11.7139 12.5698C10.3377 12.5698 9.66277 13.8075 9.63057 15.2494V21.5482H6.90453V14.9486C6.90453 13.3778 6.13418 12.5698 4.956 12.5698C3.53932 12.5698 2.76658 13.8469 2.72246 15.4929V21.5553H0.00119249V10.5454H0Z" fill="#050505"/>
<path d="M18.3384 16.046C18.3384 12.5403 20.4097 10.2402 23.9121 10.2402C27.4144 10.2402 29.4143 12.5332 29.4143 16.0532C29.4143 19.5732 27.3751 21.9521 23.9121 21.9521C20.4491 21.9521 18.3384 19.6102 18.3384 16.046ZM26.7932 16.0532C26.7932 13.7555 25.7116 12.4496 23.924 12.4496C22.1365 12.4496 20.9631 13.8271 20.9631 16.0687C20.9631 18.3103 22.1496 19.72 23.9526 19.72C25.7557 19.7188 26.7932 18.3652 26.7932 16.0532Z" fill="#050505"/>
<path d="M31.3838 6.44629H34.0097V21.5504H31.3838V6.44629Z" fill="#050505"/>
<path d="M46.865 17.8575C46.2771 20.3772 44.4049 21.9254 41.5727 21.9254C38.0728 21.9254 35.999 19.6133 35.999 16.048C35.999 12.4826 38.0286 10.2422 41.5286 10.2422C44.5707 10.2422 46.9223 12.1233 46.9521 16.6615H38.6869C38.867 18.8088 40.1179 19.8688 41.6181 19.8688C42.8737 19.8688 43.7979 19.1693 44.1771 17.8623H46.8686L46.865 17.8575ZM41.5405 12.2916C40.0285 12.2916 39.0411 13.2215 38.7334 14.8376H44.164C43.823 13.3265 42.9572 12.2916 41.5405 12.2916Z" fill="#050505"/>
<path d="M54.0735 21.9521C50.5735 21.9521 48.501 19.6102 48.501 16.046C48.501 12.4819 50.5711 10.2402 54.0735 10.2402C57.044 10.2402 58.9746 11.9268 59.4528 14.6435H56.8103C56.4573 13.2458 55.4878 12.4819 54.0854 12.4819C52.2132 12.4819 51.1257 13.8474 51.1257 16.0711C51.1257 18.2948 52.3122 19.7367 54.1152 19.7367C55.5319 19.7367 56.5169 18.8833 56.8365 17.353H59.4767C59.0307 20.1759 57.0929 21.9556 54.0735 21.9556V21.9521Z" fill="#050505"/>
<path d="M71.2492 21.5528H68.6245V19.5237H68.5673C67.9388 21.1577 66.6485 21.8727 65.0625 21.8727C62.7503 21.8727 61.2036 20.2804 61.2036 17.6939V10.5596H63.9297V17.1293C63.9297 18.6869 64.7871 19.5655 66.0547 19.5655C67.6455 19.5655 68.5231 18.0448 68.5231 16.4668V10.5608H71.2504V21.5528H71.2492Z" fill="#050505"/>
<path d="M73.7246 6.44629H76.3493V21.5504H73.7246V6.44629Z" fill="#050505"/>
<path fill-rule="evenodd" clip-rule="evenodd" d="M114.068 28C122.897 28 129.709 21.7311 127.621 14C125.531 6.26891 118.232 0 109.655 0C101.077 0 94.0126 6.26891 96.1018 14C98.1899 21.7311 105.49 28 114.068 28ZM104.286 6.41811H119.44V21.5855H104.286V6.41811Z" fill="#050505"/>
<path d="M89.4355 21.5417H88.2669C86.8741 21.5417 86.1514 20.7921 85.9534 19.8467H85.9057C85.1545 21.1597 83.9978 21.8878 82.0898 21.8878C79.7167 21.8878 78.3096 20.5629 78.3096 18.7247C78.3096 16.0391 80.8257 15.4184 82.9603 15.1319C84.5463 14.9171 85.9177 14.7619 85.9177 13.6041C85.9177 12.6134 84.9875 12.2672 83.9262 12.2672C82.9603 12.2672 81.5531 12.6014 81.267 14.0577H78.7746C79.0251 11.3601 81.5054 10.25 83.8785 10.25C86.2516 10.25 88.5054 11.0497 88.5054 14.1412V19.417H89.4355V21.5417ZM85.8819 16.5046V15.9794H85.8223C85.3214 16.6359 84.3197 16.803 83.3657 16.9582C82.1494 17.1491 80.9927 17.3401 80.9927 18.5815C80.9927 19.4528 81.6485 19.9183 82.8291 19.9183C84.3436 19.9183 85.8819 18.9515 85.8819 16.5046Z" fill="#050505"/>
</svg>
